<svg version="1.2" xmlns="http://www.w3.org/2000/svg" viewBox="0 0 336 304" width="336" height="304">
	<title>diamond-no-text-svg</title>
	<defs>
		<clipPath clipPathUnits="userSpaceOnUse" id="cp1">
			<path d="m0 0h336v304h-336z"/>
		</clipPath>
	</defs>
	<style>
		.s0 { fill: #e8e8e8 } 
		.s1 { fill: #262626 } 
		.s2 { fill: #4e4ad9 } 
		.s3 { fill: #ffffff } 
		.s4 { fill: #000000 } 
		.s5 { opacity: .2;fill: #9b9797 } 
		.s6 { fill: #0d0d0d } 
		.s7 { opacity: .3;fill: #9b9797 } 
		.s8 { fill: none;stroke: #0d0d0d;stroke-width: 3 } 
	</style>
	<g id="Clip-Path" clip-path="url(#cp1)">
		<g id="Layer">
			<path id="Layer" class="s0" d="m270.8 44.5c0.5 0 0.5-0.9 0-0.9-0.5 0-0.5 0.9 0 0.9z"/>
			<path id="Layer" class="s0" d="m90.9 20.3c0.5 0 0.5-0.9 0-0.9-0.6 0-0.6 0.9 0 0.9z"/>
			<g id="Pasta 1">
				<path id="Layer" class="s1" d="m0.3 249.1c3.3-1.6 4.5-5.9 8.5-6.5 1.9-0.3 3.7 0.2 5.7 0.1 2.3-0.2 3.4-1.5 5-3 1.2-1 2.4-1.7 4-1.5 2.3 0.3 4.6 1.3 6.8 2q14.2 4.3 28.4 8.7c0.5 0.2 0.3 1-0.2 0.8-5.2-1.6-10.3-3.2-15.5-4.8-4.6-1.4-9.1-2.7-13.7-4.1q-1.7-0.6-3.4-1.1c-1.3-0.4-2.8-1-4.1-0.5-1.6 0.6-2.6 2.2-3.9 3.2-3 2.2-6.6 0.2-9.9 1.2-3.1 1-4.4 4.8-7.3 6.2-0.5 0.3-0.9-0.4-0.4-0.7z"/>
				<path id="Layer" class="s1" d="m50.6 245.6c1.4 0.3 2.8-1.2 4-1.8q1.2-0.5 2.6-0.7c2.1-0.3 4.2 0.2 6 1.3 0.5 0.2 0 1-0.4 0.7-2.2-1.3-4.7-1.6-7.1-0.8-1.8 0.6-3.3 2.6-5.3 2.1-0.5-0.2-0.3-1 0.2-0.8z"/>
				<path id="Layer" class="s1" d="m71.2 244.9c-3-2.5-5.8-5.3-8.3-8.4-0.7-0.9-2.3-2.3-2-3.6 0.2-0.9 1-1.3 1.8-0.9q-0.3 0.3-0.6 0.6-2.6-3.5-3.8-7.7c-0.1-0.3 0.2-0.6 0.5-0.5 1.1 0.3 1.9 0.9 2.6 1.9q-0.4 0.2-0.8 0.4-6.2-10.8-10.1-22.6c-0.1-0.5 0.4-0.7 0.7-0.5 11.7 11.5 17 27.3 26.8 40.1 0.3 0.4-0.4 0.9-0.8 0.4-9.7-12.7-15-28.5-26.6-39.9q0.4-0.2 0.7-0.4c2.6 7.8 5.9 15.3 10.1 22.5 0.2 0.4-0.5 0.8-0.8 0.4-0.5-0.8-1.1-1.3-2-1.5q0.2-0.3 0.5-0.5 1.2 4 3.7 7.4c0.3 0.4-0.3 0.8-0.6 0.6q-0.7 0.9 0 1.6 0.4 0.6 0.8 1.1 0.6 0.7 1.2 1.5 1.1 1.3 2.3 2.5 2.4 2.6 5.2 4.9c0.5 0.3-0.1 0.9-0.5 0.6z"/>
				<path id="Layer" class="s1" d="m68.1 227.4c-5.1-7.6-9.2-15.9-12.3-24.5-0.1-0.2 0.1-0.5 0.3-0.5 1.3-0.3 2.5 0.2 3.2 1.3q-0.4 0.2-0.7 0.4c-4.4-9.3-8.8-19.1-8.5-29.7 0-0.4 0.6-0.6 0.8-0.2q11.1 22.8 21 46.1-0.3 0.2-0.7 0.3c-1.5-4.3-2.9-8.7-4.3-13-0.6-1.9-2.4-5.8 0.4-6.8 0.1-0.1 0.4 0 0.5 0.2q2.9 5.8 5.9 11.6-0.4 0.2-0.7 0.5c-2.2-4.4-3.3-9.2-3.1-14.1 0-0.5 0.6-0.5 0.8-0.1 5.7 14.2 12.4 28 19.9 41.4 0.2 0.5-0.5 0.9-0.8 0.5-7.5-13.5-14.1-27.4-19.9-41.7q0.4 0 0.8-0.1c-0.2 4.7 0.8 9.4 3 13.6 0.2 0.5-0.5 0.9-0.7 0.5q-3-5.9-6-11.7c0.2 0 0.3 0.1 0.5 0.2-1.6 0.5-0.8 2.9-0.4 4 0.5 1.6 1 3.2 1.6 4.8 1.1 3.3 2.1 6.7 3.3 10 0.1 0.4-0.6 0.8-0.8 0.3q-10-23.3-21-46.1c0.2 0 0.5-0.1 0.7-0.2-0.3 10.4 4.1 20.1 8.4 29.3 0.2 0.5-0.5 0.9-0.7 0.4-0.6-0.8-1.4-1.2-2.3-0.9q0.1-0.3 0.3-0.5c3 8.6 7.1 16.7 12.2 24.3 0.3 0.5-0.4 0.9-0.7 0.4z"/>
				<path id="Layer" class="s1" d="m13.7 279.7c5.3-2.6 10.6-5.1 16.3-6.8 4.9-1.4 10.1-2 15.2-1.5 5.3 0.6 10.4 2.2 15.6 2.8 2.7 0.3 5.3 0.4 8-0.1 2.5-0.4 4.8-1.4 7.3-1.8 5.1-0.7 9.9 2.9 14.9 1.7 0.5-0.1 0.7 0.7 0.2 0.8-2.5 0.6-4.9 0.1-7.3-0.6-3-0.8-5.8-1.6-8.9-0.9-2.4 0.6-4.6 1.4-7.1 1.7-2.6 0.4-5.2 0.2-7.8-0.1-5.2-0.7-10.2-2.2-15.3-2.7-11-1.1-21.1 3.6-30.6 8.2-0.5 0.2-1-0.5-0.5-0.7z"/>
				<path id="Layer" class="s1" d="m69.9 302.6q5.4-2.3 10.4-5.2 2.5-1.4 4.9-3c1.3-0.8 2.6-2.1 4.1-2.5 1.5-0.3 3.4 0.6 4.9 1.1q2.9 0.9 5.8 1.8 6.1 1.9 12.2 3.7c0.5 0.2 0.2 1-0.3 0.8q-5.6-1.7-11.3-3.5-2.7-0.8-5.5-1.7c-1.8-0.5-4.4-1.8-6.2-1.1-1.5 0.6-2.9 1.9-4.3 2.8q-2.4 1.5-4.8 2.9c-3.1 1.7-6.2 3.2-9.5 4.6-0.4 0.2-0.9-0.5-0.4-0.7z"/>
				<path id="Layer" class="s1" d="m104.3 303.5q3.2-1.6 6.3-3.2c1.7-0.8 3.4-1.8 5.2-2.4 3.9-1.1 6.6 1.9 10.3 2.7 4.3 1.1 8.2-0.7 12.5-1.2 1.8-0.2 3.4 0.1 5.2 0.6 2 0.7 4.1 1.7 6.2 0.6 0.4-0.2 0.8 0.5 0.4 0.8-3.3 1.7-6.6-1-9.9-1.2-4.1-0.2-8 1.8-12.1 1.6-1.8-0.1-3.6-0.5-5.2-1.2-1.9-0.9-3.7-2.4-5.9-2.1-2.2 0.2-4.3 1.5-6.2 2.5q-3.2 1.6-6.4 3.2c-0.4 0.2-0.8-0.5-0.4-0.7z"/>
				<path id="Layer" class="s1" d="m120.2 298.8c-2.9-2.5-5.3-5.6-6.9-9.1-0.4-1-1.5-2.9-0.4-3.7 0.7-0.5 1.6-0.2 1.7 0.5 0.1 0.5-0.4 0.8-0.7 0.4-3.1-4.6-5.1-9.8-5.7-15.4 0-0.3 0.5-0.5 0.7-0.3q0.8 1 1.5 2-0.3 0.2-0.6 0.5c-4.9-8.7-7.5-18.6-7.6-28.5 0-0.4 0.4-0.6 0.7-0.3q3 2.4 4.4 6c0.2 0.4-0.5 0.7-0.7 0.3-2.2-4.8-2.7-10.1-1.4-15.2 0.1-0.4 0.7-0.4 0.8 0 5.7 16.2 11.3 32.4 17 48.6-0.3 0.1-0.5 0.1-0.8 0.2-2.9-8.4-4.3-17.2-4.2-26 0-0.4 0.4-0.6 0.7-0.3 1.8 1.6 3 3.6 3.3 6q-0.3 0.1-0.8 0.1c0-1.7-0.2-3.4-0.2-5.1 0-0.3 0.3-0.5 0.6-0.3 1 0.6 1.4 1.7 1.8 2.8q0.8 2.7 1.7 5.5 1.6 5.4 3.2 10.8c2.3 7.3 4.5 14.7 6.7 22 0.2 0.6-0.6 0.8-0.8 0.3q-3.1-10.3-6.2-20.5c-1-3.5-2.1-6.8-3.1-10.3q-0.8-2.5-1.5-5c-0.5-1.5-0.8-4-2.2-4.9 0.2-0.2 0.4-0.3 0.6-0.4 0.1 1.7 0.2 3.4 0.3 5.1 0 0.5-0.8 0.6-0.8 0.1q-0.6-3.4-3.2-5.7c0.3-0.1 0.5-0.2 0.8-0.3-0.1 8.8 1.3 17.6 4.1 25.9 0.2 0.5-0.6 0.7-0.8 0.2-5.6-16.2-11.3-32.4-17-48.6q0.4 0 0.8 0c-1.2 4.9-0.8 10 1.4 14.5q-0.4 0.2-0.8 0.4c-0.9-2.3-2.3-4.1-4.2-5.7 0.3-0.1 0.5-0.1 0.7-0.3 0.1 9.9 2.7 19.5 7.5 28.1 0.2 0.4-0.4 0.9-0.7 0.5q-0.8-1-1.5-1.9c0.2-0.1 0.5-0.2 0.7-0.3 0.7 5.3 2.6 10.4 5.6 14.9q-0.4 0.2-0.7 0.3-0.7 0.6-0.4 1.2 0.2 0.6 0.5 1.1 0.3 0.7 0.7 1.4 0.7 1.4 1.6 2.7c1.2 1.9 2.8 3.6 4.5 5.1 0.4 0.3-0.2 0.9-0.7 0.6z"/>
				<path id="Layer" class="s1" d="m91.2 236.2c-0.2-1.4 0.7-2.6 1.9-3.3 1.7-0.9 3.7-0.5 5.4-0.2q7.3 1.3 14.5 2.7c9.9 1.8 19.8 3.7 29.7 5.5 0.5 0.1 0.3 0.9-0.3 0.8q-12.9-2.4-25.8-4.8-6.5-1.2-12.9-2.4c-2.7-0.5-12.1-3.5-11.7 1.7 0 0.5-0.8 0.5-0.8 0z"/>
				<path id="Layer" class="s1" d="m136.7 240c3 0.3 4.8-3.1 7.4-4.1 1.5-0.6 2.8-0.1 4.3 0.3 2.4 0.6 4.9 0.7 7.4 0.4 0.5-0.1 0.5 0.8 0 0.8-2.2 0.3-4.5 0.2-6.7-0.2-1.9-0.4-3.6-1.3-5.5-0.1-2.2 1.3-4 4-6.9 3.7-0.5 0-0.5-0.9 0-0.8z"/>
				<path id="Layer" class="s1" d="m189.2 293.1c7.6-2.6 15.2-5.3 23-6.9 14.3-3 28.8-1 43.1 0.3q22.4 2.1 44.8 4.2c0.5 0.1 0.5 0.9 0 0.8q-12.5-1.2-25.1-2.3-10.9-1-21.8-2.1c-7.3-0.6-14.5-1.4-21.8-1.7-7.3-0.2-14.6 0.5-21.7 2.2-6.9 1.7-13.6 4-20.2 6.3-0.5 0.2-0.7-0.6-0.3-0.8z"/>
				<path id="Layer" class="s1" d="m218.5 265.9c5.7-1.2 10.9-3.8 16.4-5.8 10.2-3.8 20.7-3.5 31.4-2.8q16.9 1.1 33.8 2.6c0.5 0 0.5 0.8 0 0.8q-9.6-0.8-19.1-1.6c-5.4-0.3-10.9-0.7-16.3-1.1-5.4-0.3-10.8-0.6-16.3-0.1-5.3 0.5-10.4 1.9-15.4 3.8-4.7 1.9-9.3 4-14.3 5-0.5 0.1-0.7-0.7-0.2-0.8z"/>
				<path id="Layer" class="s1" d="m282.1 234.2c3.8-2.9 7.8-5.7 12.1-8 2-1.1 4.1-1.9 6.3-2.3 2.2-0.4 4.4-0.2 6.7 0.1 5.2 0.6 10.4 1.1 15.7 1.5 3.8 0.2 9.7 1.5 12.5-1.9 0.3-0.4 0.9 0.1 0.5 0.6-2.4 3-6.9 2.5-10.3 2.3-5.3-0.4-10.6-0.7-15.8-1.4-2.6-0.3-5.2-0.8-7.8-0.6-2.4 0.2-4.8 1.1-6.9 2.2-4.5 2.2-8.6 5.2-12.6 8.2-0.4 0.3-0.8-0.4-0.4-0.7z"/>
				<path id="Layer" class="s1" d="m129.8 229.6c4.4-3.3 8.8-6.7 13.3-10 3.3-2.5 6.5-4.7 10.8-4.9 4.6-0.3 9.4 0.2 14 0.6q7.1 0.6 14.1 1.6c2.4 0.3 4.8 0.7 7.2 1 2.2 0.3 4.5 0.3 6.5-0.8 0.5-0.3 0.9 0.5 0.4 0.7-3.9 2.2-8.9 0.6-13 0q-7.4-1-14.9-1.6c-4.6-0.4-9.4-0.9-14-0.7-4.9 0.2-8.4 3.2-12.2 6-3.9 3-7.9 5.9-11.8 8.8-0.4 0.4-0.9-0.3-0.4-0.7z"/>
				<path id="Layer" class="s1" d="m285 259.3q0.4-2.9 1.2-5.6c0.4-1.2 0.7-2.6 1.5-3.6 1.5-1.8 2.8 0.6 2.9 2.1q-0.4-0.1-0.8-0.2c1.4-4.4 3-9.2 7.2-11.8 0.2-0.1 0.6 0.1 0.6 0.4 0 0.7 0 1.4 0 2.1-0.3-0.1-0.6-0.2-0.8-0.2 2.5-5.3 5.3-10.7 10.4-13.9 0.3-0.2 0.8 0.1 0.6 0.5q-3.8 9.7-8.7 18.9-0.4-0.2-0.7-0.5c1.9-2.2 3.8-4.5 6.3-6.1 0.4-0.3 0.8 0.2 0.6 0.6q-4.6 9.7-10.1 18.9c-0.3 0.4-1 0-0.7-0.5q5.5-9.2 10.1-18.8 0.3 0.2 0.6 0.5c-2.5 1.6-4.3 3.8-6.2 6.1-0.3 0.3-0.9-0.2-0.7-0.5q5-9.2 8.7-18.8c0.2 0.1 0.4 0.3 0.6 0.4-4.9 3.1-7.6 8.5-10.1 13.6-0.2 0.4-0.8 0.2-0.8-0.2 0-0.7 0.1-1.4 0.1-2.1 0.2 0.1 0.4 0.2 0.6 0.3-4 2.5-5.5 7.1-6.8 11.4-0.1 0.4-0.7 0.3-0.8-0.1 0-0.3-0.2-1.5-0.5-1.6-0.8-0.2-1.3 0.6-1.5 1.1-0.3 0.8-0.6 1.6-0.8 2.5-0.5 1.7-0.9 3.5-1.1 5.3-0.1 0.6-0.9 0.3-0.9-0.2z"/>
				<path id="Layer" class="s1" d="m92.1 212.2c2-1.1 4.2-2.3 6.4-2.9 2.4-0.7 4.8-0.7 7.2-0.4 5.4 0.6 10.7 1.4 16.1 2.1 0.5 0.1 0.5 0.9 0 0.8q-7.5-1-15-1.9c-2.6-0.4-5-0.6-7.6 0.1-2.3 0.6-4.5 1.8-6.7 2.9-0.5 0.3-0.9-0.4-0.4-0.7z"/>
				<path id="Layer" class="s1" d="m260.2 25c1.6-1.3 3.5-1.7 5.5-1.3q1.5 0.3 2.9 1.1c1.1 0.6 2 1.5 3.2 1.9 2.2 0.8 4.1-1 6-1.9 1.6-0.7 3.1-0.6 4.7 0.1 2.1 0.9 4 2.1 6.3 1.2 1.8-0.7 3.3-2.1 5.1-2.9 1.4-0.8 3-1 4.6-0.5 1.1 0.3 2 0.8 3.1 1.2 1.5 0.5 2.5 0.1 4-0.4 2.3-0.9 4.5 0 6.6 0.8 2.2 0.9 5 1.7 6.8-0.1 0.4-0.4 1 0.2 0.6 0.6-1.4 1.4-3.5 1.5-5.4 1.1-1.3-0.3-2.4-0.8-3.6-1.3-1.9-0.7-3.5-0.8-5.4 0-1.9 0.7-3.2 0.4-5.1-0.4-1.1-0.5-2.3-1.1-3.6-0.9-1 0-2 0.5-2.8 1-3.2 1.8-5.7 4-9.4 2.4-1.2-0.5-2.2-1.2-3.5-1.5-1.1-0.2-2.2 0.2-3.2 0.7-1.5 0.8-3 2-4.8 1.9-2 0-3.3-1.7-5-2.5-2.2-1-5-1.4-7 0.3-0.3 0.4-1-0.2-0.6-0.6z"/>
				<path id="Layer" class="s1" d="m275.7 47c2-3.5 6.3-0.9 9-0.1 3.6 1 6-2.3 9.4-2.3 1.7 0 2.8 1 4.2 1.7 1.7 0.8 3.4 0.2 5-0.4 1.3-0.4 2.6-1 4-1.1 0.6 0 1.2 0.1 1.8 0.3 1.1 0.5 1.7 1.2 3 0.9 1-0.2 2-0.6 3-0.8q1.3-0.2 2.6 0 2.5 0.2 4.8 1.4c0.4 0.3 0 1-0.5 0.8-2.3-1.3-5-1.8-7.7-1.2-0.9 0.2-1.8 0.7-2.8 0.8-1 0-1.6-0.5-2.5-1-3.2-1.6-6.6 2.2-10 1.5-2.1-0.5-3.5-2.5-5.9-2-1.7 0.4-3.2 1.5-4.8 2.1-2.1 0.7-3.8 0.2-5.7-0.6-1.9-0.7-5-1.9-6.3 0.5-0.2 0.4-0.9 0-0.6-0.5z"/>
				<path id="Layer" class="s1" d="m248.9 79.9c1.3-1 2.9-1.6 4.6-1.4 1.7 0.1 4 2.1 5.6 1.2 0.7-0.4 1.2-1.1 1.9-1.4 0.6-0.2 1.3-0.3 1.9-0.3 1.8 0.2 3.4 1 5.1 1.3 2.2 0.5 4.1-0.3 6.3-0.6 2-0.3 3.3 0.5 5.1 1 2 0.6 3.5-1 5.5-0.8 2.3 0.3 4.7 1.2 7 1.7 0.5 0.2 0.3 1-0.2 0.8-2.2-0.5-4.4-1.3-6.6-1.6-1.8-0.3-3.3 1.2-5.1 1-1.9-0.3-3.3-1.5-5.3-1.3-1.9 0.1-3.6 1-5.6 0.8-1.6-0.1-3.1-0.8-4.7-1.1-0.9-0.3-1.9-0.5-2.8-0.2-0.8 0.3-1.3 1-2 1.4-1.3 0.7-2.6 0.2-3.7-0.3-2.2-1-4.4-1.1-6.4 0.4-0.4 0.4-1-0.2-0.6-0.6z"/>
				<path id="Layer" class="s1" d="m92.5 20.7c0.3-1.2 1.3-1.8 2.5-1.9 1.7-0.1 2.9 0.8 4.3 1.6 1.2 0.8 2.4 1.1 3.8 0.5 0.9-0.4 1.6-1.1 2.5-1.5 1.5-0.6 3.1-0.5 4.6-0.1 2 0.5 3.9 1.4 5.9 1.5 2.3 0.1 4-1.3 6.1-2 3.9-1.2 7.7 2.3 11.6 1 0.5-0.1 0.7 0.7 0.2 0.8-3.7 1.2-7.1-1.8-10.8-1.2-1.9 0.4-3.5 1.7-5.3 2.1-1.6 0.4-3.2 0-4.7-0.4-1.8-0.6-3.6-1.4-5.5-1.3-2 0.1-3.2 1.6-5 2.1-1.7 0.5-3.1-0.3-4.5-1.1-1.1-0.8-4.4-2.3-4.9 0.1-0.1 0.5-0.9 0.3-0.8-0.2z"/>
				<path id="Layer" class="s1" d="m95.6 181.4c2.9-1.3 5.8 0.4 8.7 1 3.6 0.7 7-1.3 10.5-0.7 1.7 0.2 3.4 1.7 5.1 1.2 1.4-0.4 2.4-1.3 3.9-1.5 3.2-0.3 6.5 1.2 9.5-0.2 0.5-0.2 0.9 0.5 0.4 0.7-2.8 1.4-5.7 0.3-8.7 0.3-0.9 0-1.7 0-2.5 0.3-0.7 0.3-1.3 0.7-2 1-1.3 0.5-2.4 0.2-3.7-0.4-2-0.8-3.9-0.8-6-0.4-1.7 0.4-3.3 0.8-5.1 0.7-3.3-0.2-6.6-2.6-9.9-1.2-0.5 0.2-0.7-0.6-0.2-0.8z"/>
			</g>
			<circle id="Layer" class="s2" cx="36" cy="137.1" r="4.4"/>
			<circle id="Layer" class="s2" cx="290.5" cy="108.4" r="3.1"/>
			<circle id="Layer" class="s2" cx="262.8" cy="2.4" r="2.3"/>
			<circle id="Layer" class="s2" cx="162.9" cy="198.3" r="2.8"/>
			<circle id="Layer" class="s2" cx="32.8" cy="37.9" r="3.2"/>
			<circle id="Layer" class="s2" cx="144.4" cy="152.6" r="1.9"/>
			<circle id="Layer" class="s2" cx="319.4" cy="167.4" r="2.8"/>
			<path id="Forma 1" class="s2" d="m389 232"/>
			<circle id="Layer" class="s2" cx="11.7" cy="214.7" r="2.1"/>
			<path id="Layer" class="s3" d="m100.8 52.1q17.6-0.1 35.3-0.1 1.9 0.9 3.7 1.9c1.9 4.8 3.8 9.6 5.7 14.3q-8.3 14-17.4 28.2c-2.6 4-5.1 8-7.7 11.9q-15-20-29.9-40 3.6-7.3 7.2-14.6 1.5-0.8 3.1-1.6z"/>
			<path id="Layer" class="s4" d="m90.1 68.1q3.2-6.9 6.5-13.7c0.2-0.5 0.9-0.1 0.7 0.4q-3.3 6.8-6.5 13.7c-0.2 0.5-0.9 0.1-0.7-0.4z"/>
			<path id="Layer" class="s4" d="m91 68.6q14.6 19.9 29.7 39.4c0.3 0.5-0.3 1-0.6 0.6q-15.2-19.6-29.8-39.6c-0.3-0.4 0.4-0.8 0.7-0.4z"/>
			<path id="Layer" class="s4" d="m97.1 53.6c1.1-0.6 2.3-1.2 3.4-1.8 0.5-0.3 0.9 0.4 0.5 0.7-1.2 0.6-2.3 1.2-3.5 1.8-0.5 0.3-0.9-0.4-0.4-0.7z"/>
			<path id="Layer" class="s4" d="m101.6 51.7q13 0 26 0c0.5 0 0.5 0.8 0 0.8q-13 0-26 0c-0.5 0-0.5-0.8 0-0.8z"/>
			<path id="Layer" class="s4" d="m145 68.4q-2.6-6.9-5.4-13.8c-0.2-0.5 0.6-0.7 0.8-0.2 1.9 4.6 3.7 9.1 5.4 13.8 0.2 0.5-0.6 0.7-0.8 0.2z"/>
			<path id="Layer" class="s4" d="m145.6 69q-12.1 19.9-24.8 39.5c-0.3 0.4-1 0-0.7-0.4q12.7-19.6 24.8-39.5c0.3-0.5 1-0.1 0.7 0.4z"/>
			<path id="Layer" class="s4" d="m139.5 54.3q-1.4-1-2.9-1.9c-0.4-0.3 0-1 0.4-0.7q1.5 0.9 2.9 1.9c0.5 0.3 0.1 1-0.4 0.7z"/>
			<path id="Layer" class="s4" d="m136.1 52.4q-10.8 0-21.6 0c-0.6 0-0.6-0.8 0-0.8q10.8 0 21.6 0c0.5 0 0.5 0.8 0 0.8z"/>
			<path id="Layer" class="s4" d="m90.7 68.2q7.5-3.1 14.9-6.3c0.5-0.2 0.9 0.5 0.4 0.7q-7.4 3.2-14.8 6.4c-0.5 0.2-0.9-0.5-0.5-0.8z"/>
			<path id="Layer" class="s4" d="m97.9 53.3q4.5 0.7 8.9 1.9c0.6 0.2 0.4 1-0.2 0.8q-4.4-1.2-9-1.9c-0.5-0.1-0.3-0.9 0.3-0.8z"/>
			<path id="Layer" class="s4" d="m107.2 55.7q1 3.1 1.8 6.2c0.1 0.6-0.7 0.8-0.8 0.3q-0.8-3.2-1.8-6.3c-0.2-0.5 0.6-0.7 0.8-0.2z"/>
			<path id="Layer" class="s4" d="m107.7 55.2q11.1 0 22.2 0c0.5 0 0.5 0.8 0 0.8q-11.1 0-22.2 0c-0.5 0-0.5-0.8 0-0.8z"/>
			<path id="Layer" class="s4" d="m130.3 56.4q-0.4 2.3-0.8 4.6c-0.1 0.5-0.9 0.3-0.8-0.3q0.4-2.3 0.8-4.6c0.1-0.5 0.9-0.3 0.8 0.3z"/>
			<path id="Layer" class="s4" d="m108.6 61.4q9.7 0 19.4 0c0.6 0 0.6 0.8 0 0.8q-9.7 0-19.4 0c-0.5 0-0.5-0.8 0-0.8z"/>
			<path id="Layer" class="s4" d="m130.5 55.2q4.5-1 9-1.9c0.5-0.1 0.7 0.7 0.2 0.8q-4.5 0.9-9 1.9c-0.5 0.1-0.7-0.7-0.2-0.8z"/>
			<path id="Layer" class="s4" d="m129.5 61.2c2.7 0.4 5.2 1.9 7.7 3 2.9 1.4 5.7 2.7 8.6 4.1 0.5 0.2 0 0.9-0.4 0.7q-4.1-1.9-8.1-3.8c-2.6-1.2-5.2-2.8-8-3.2-0.5-0.1-0.3-0.9 0.2-0.8z"/>
			<path id="Layer" class="s4" d="m109.6 63.3c3.6 14.8 7.2 29.6 10.8 44.4 0.1 0.5-0.7 0.8-0.8 0.2-3.6-14.8-7.2-29.6-10.8-44.4-0.1-0.5 0.7-0.8 0.8-0.2z"/>
			<path id="Layer" class="s4" d="m129 64.7q-5.1 21.4-8.4 43.2c-0.1 0.5-0.9 0.3-0.8-0.3 2.2-14.4 5-28.9 8.4-43.1 0.1-0.5 0.9-0.3 0.8 0.2z"/>
			<path id="Layer" class="s4" d="m127.6 36.6c1.2-3.1 1.9-6.4 2.1-9.7 0-0.5 0.8-0.5 0.8 0-0.1 3.4-0.8 6.8-2.1 9.9-0.2 0.5-1 0.3-0.8-0.2z"/>
			<path id="Layer" class="s4" d="m133.5 36.8c2.7-3 5.8-5.8 9.2-8 0.4-0.3 0.8 0.4 0.4 0.7q-5 3.4-9 7.9c-0.4 0.4-0.9-0.2-0.6-0.6z"/>
			<path id="Layer" class="s4" d="m139.3 41.7q5.3-1.6 10.8-1.2c0.5 0.1 0.5 0.9 0 0.9-3.6-0.3-7.1 0.1-10.5 1.1-0.6 0.2-0.8-0.6-0.3-0.8z"/>
			<path id="Layer" class="s0" d="m82.1 23.1c0.3 5.8-2.9 11.3-8.1 13.8q0-0.3 0-0.7c4.7 2.8 6.9 8 8.2 13.1 0.1 0.5-0.7 0.7-0.8 0.2-1.2-4.9-3.3-9.9-7.8-12.6-0.3-0.1-0.3-0.6 0-0.7 4.9-2.4 8-7.6 7.7-13.1-0.1-0.5 0.8-0.5 0.8 0z"/>
			<path id="Layer" class="s0" d="m82.4 23.1c-0.4 5.5 2.7 10.7 7.7 13.1 0.2 0.1 0.2 0.6 0 0.7-4.6 2.7-6.7 7.7-7.8 12.6-0.2 0.6-1 0.4-0.9-0.2 1.3-5.1 3.5-10.3 8.2-13.1q0 0.4 0 0.7c-5.1-2.5-8.4-8-8-13.8 0-0.5 0.8-0.5 0.8 0z"/>
			<path id="Layer" class="s4" d="m216.3 230.5c1-0.5 2.3-1.1 3.8-1.9 2.6-1.4 3.8-2.2 4.6-3.3 1-1.5 0.6-2.3 1.9-3.8 0.2-0.2 1.1-1.2 2.3-1.7 2.1-0.9 4 0.2 7.1 1.3 3 1 5.3 1.5 9.9 2.6 1.8 0.4 4 0.8 7.2 1.8q1.4 0.4 2.2 0.7c0 0.6 0 2-0.9 3.4-0.5 0.6-1.1 1.1-2.1 1.5-2.2 1.1-4.3 0.9-6.1 0.8-3.9-0.2-2.3 0.4-11.4 0.6-2 0-3.7 0-4.8 0q-2.1 1.4-4.2 3-3.7 2.6-7 5.3-1.3-5.2-2.5-10.3z"/>
			<path id="Layer" class="s3" d="m233.2 196.2c2 3.9-1.1 9.6-4.2 15.2-2.5 4.6-5.5 7.8-7.5 9.9-2.8 3-5.5 5.3-7.6 6.9 0.9 1 2.2 2.5 3.5 4.5 1.6 2.4 3.1 4.6 3.8 7.8 0.3 1.4 0.6 3.5 0.3 6.3-5.8 3.5-10.5 6.6-13.6 8.7-7 4.7-9.2 6.6-14.4 9.1-5.5 2.7-9.8 4-11.7 4.5-1.7 0.5-6.1 1.6-11.8 2-4.3 0.3-6.6 0.5-9.6-0.6-0.9-0.4-3.8-1.5-6-4.3-3.5-4.3-3-9.8-2.6-13.8 0.3-3 1.4-9.1 6.2-16.3 1.9-2.9 3.8-5.1 13.8-13.8 10.5-9.1 11.8-9.7 23.3-19.5 7.4-6.3 7.7-6.6 9.7-7.7 10.4-5.4 25.3-5.1 28.4 1.1z"/>
			<path id="Layer" class="s5" d="m228.1 210.2c-1.6 4.8-4 8-5.6 10.1-2.9 3.7-6 6.3-8.3 7.9q2.8 4.1 5.5 8.3c-7.1 5.2-18.6 12.3-34.2 16.8-2.1 0.7-16.7 5-17.8 2.6-0.7-1.8 6.2-6 32.2-24.5 9.2-6.6 15.3-11 21.3-19 4.2-5.5 6.8-10.6 8.3-14.3 0.3 3 0.2 7.2-1.4 12.1z"/>
			<path id="Layer" class="s6" d="m205.1 195.8q-15.8 11.7-30.6 24.7c-4 3.5-8.2 7.1-12 11-3.6 3.8-7 8-8.7 13-1.7 5-2.2 10.9-1.2 16.2 0.5 2.4 1.4 4.7 3.1 6.5 1.8 1.8 4.1 2.8 6.5 3.3 5.2 1 11 0.2 16.1-0.9 5.6-1.2 10.9-3.1 15.9-5.8 9.5-5 17.6-12.3 27.1-17.4 0.5-0.2 0.9 0.5 0.4 0.7-11.4 6.1-20.8 15.2-32.8 20.1-5.4 2.2-11.1 3.6-16.9 4.2-4.7 0.5-10.1 0.7-14.3-1.7-4.1-2.3-5.7-6.8-6.2-11.2-0.5-5.4 0.1-11.1 2.3-16.1 2-4.8 5.5-8.9 9.1-12.5 4.2-4.1 8.6-8 13-11.8 9.3-8 18.9-15.7 28.7-23 0.5-0.3 0.9 0.4 0.5 0.7z"/>
			<path id="Layer" class="s4" d="m177.3 250.9c8.9-3.4 16.9-8.5 24.5-14.1 3.8-2.8 7.5-5.7 11.3-8.6 3.7-2.9 7.4-6 10.3-9.8 0.4-0.4 1.1 0 0.7 0.4-2.8 3.8-6.4 6.8-10.1 9.7-3.7 2.9-7.5 5.9-11.4 8.7-7.8 5.7-16 11-25.1 14.5-0.5 0.2-0.7-0.6-0.2-0.8z"/>
			<path id="Layer" class="s4" d="m214.2 227.9c5.5 4.6 8.4 11.7 7.7 18.9-0.1 0.5-0.9 0.5-0.9 0 0.8-7-2.1-13.9-7.4-18.4-0.4-0.3 0.2-0.9 0.6-0.5z"/>
			<path id="Layer" class="s4" d="m220.7 238.3c1.7-0.5 3.2-2 4.6-3 1.5-1 3-2.1 4.5-3.2 0.4-0.3 0.9 0.5 0.4 0.8q-2.5 1.7-4.9 3.4c-1.4 1-2.8 2.3-4.3 2.8-0.6 0.1-0.8-0.7-0.3-0.8z"/>
			<path id="Layer" class="s4" d="m216.2 230c3-1.2 5.8-2.9 8.2-5 0.4-0.3 1 0.2 0.6 0.6-2.6 2.2-5.5 3.9-8.6 5.2-0.5 0.3-0.7-0.5-0.2-0.8z"/>
			<path id="Layer" class="s4" d="m224.7 225.2c0.5 0 0.5-0.8 0-0.8-0.5 0-0.5 0.8 0 0.8z"/>
			<path id="Layer" class="s4" d="m224.9 224c0.7-1.8 1.7-3.9 3.7-4.5 1.2-0.4 2.4-0.1 3.6 0.2 1.5 0.3 3.1 0.8 4.6 1.2 3.2 0.9 6.4 1.9 9.7 2.5 1.4 0.2 3.1 0.2 4.5 0.6 1.4 0.5 2.6 1.6 4.1 1.7 0.6 0.1 0.6 0.9 0 0.8-1.1-0.1-2-0.6-3-1.1-1.4-0.7-2.7-0.9-4.2-1-2.7-0.3-5.3-1-7.8-1.7-2.8-0.8-5.6-1.7-8.4-2.3-1.5-0.3-3-0.5-4.1 0.7-0.9 0.8-1.4 2-1.9 3.1-0.2 0.5-1 0.3-0.8-0.2z"/>
			<path id="Layer" class="s4" d="m229.9 232.7q6.9-1 13.8-1.2c2.4 0 4.9 0.2 7.2-0.3 2.2-0.6 4.5-2.4 3.9-4.9-0.1-0.5 0.7-0.8 0.8-0.2 0.4 1.8-0.4 3.4-1.8 4.6-1.6 1.4-3.9 1.6-5.9 1.6-6 0.1-11.9 0.3-17.8 1.2-0.5 0-0.8-0.8-0.2-0.8z"/>
			<path id="Layer" class="s6" d="m251.1 228q3.1-2.2 6.2-4.4c0.1-1 0.6-3 2.2-4.7 0.5-0.6 1.7-1.8 3.4-2.1 1.9-0.4 3.3 0.5 4.9 1.2 2.5 1.1 5 1.6 9.8 2.5 3.9 0.7 5.8 1.1 8.6 0.9 3.7-0.2 6.4-1.2 8 0.4 0.2 0.2 0.9 0.9 0.8 1.8 0 1.2-1.3 1.9-2.3 2.5-4.3 2.5-6.8 3.2-6.8 3.2-6.1 1.8-9.2 2.7-11.9 2.9-2.1 0.2-5.2 0.3-8.9-0.3-1.1 3.7-4.3 6.1-7.4 5.9-4-0.3-7.6-4.7-6.6-9.8z"/>
			<path id="Layer" class="s3" d="m211.4 203.6c0.6-1.9 1.7-4.2 3.8-5 1.4-0.5 2.7-0.2 3.1-0.1 2.6 0.7 7.9-0.2 18.4-2 5.2-0.9 11.9-2.2 19.5-4.2 0 1.5 0 3.3-0.1 5.5-0.2 4.8-0.7 8.4-0.8 9.3-0.5 3.4-1.3 9.1-3.8 16-0.7 1.8-1.3 3.2-1.8 4.2 1.1 0.5 2.3 1.2 3.4 2.1 4.7 3.8 6.1 9 6.5 11.3-0.7 0.8-1.7 2-2.9 3.3-5.2 5.5-9.9 8.5-19 14.1-5.6 3.5-9.7 6-16.3 9.9-7.9 4.7-14.4 8.3-22.4 10.6-2 0.6-5.2 1.4-9.1 0.9-2-0.1-5.5-0.5-8.8-2.9-4.3-3.1-5.7-7.7-6.2-9.6-1.3-4.5-0.8-8.7 0.4-13 0.8-3 3.7-13.1 13.8-24.5 2-2.2 7.8-7.3 19.2-17.6 2.8-2.4 5.1-4.4 6.6-5.7q-1.8-1.4-3.5-2.6z"/>
			<path id="Layer" class="s5" d="m256.2 192.4c0 4.8-0.3 8.9-0.6 12.1-0.1 1.3-0.6 5.6-1.8 10.9-0.7 3.4-1.2 5-1.9 6.6-0.9 2.4-2.1 4.3-2.9 5.5 1.2 0.5 2.9 1.4 4.6 2.8 1.8 1.4 3 3 3.8 4.1-4.9 4.7-12.1 11-21.9 16.9-13 7.8-31 15.2-32.9 12.2-2.6-4 29-20.2 43.2-57.5 1.5-4.2 2.6-7.7 3.2-10.1q3.6-1.8 7.2-3.5z"/>
			<g id="Pasta 2">
				<path id="Layer" class="s6" d="m256.6 192.3q0.1 9-1.3 17.7c-0.8 4.7-1.7 9.4-3.6 13.7-2 4.5-5.4 7.7-9 10.8-8.3 6.9-16.6 13.8-24.9 20.7-0.5 0.4-1-0.2-0.6-0.6 4.5-3.7 9.1-7.5 13.6-11.3q6-4.9 11.9-9.9c3.8-3.3 7-6.8 8.8-11.5 1.8-4.5 2.6-9.3 3.3-13.9q1-7.8 1-15.7c0-0.5 0.8-0.5 0.8 0z"/>
				<path id="Layer" class="s6" d="m212.3 203.6q1.7 0.9 3.4 1.8c0.5 0.3 0 1-0.4 0.8q-1.8-1-3.5-1.9c-0.4-0.2 0-0.9 0.4-0.7z"/>
				<path id="Layer" class="s6" d="m215.9 206.4c-10.4 8.4-21.3 16.7-29.7 27.2-6.7 8.4-12.3 19.4-11.3 30.4 0.5 5.5 3.1 10.5 8.1 13.1 5.1 2.7 11.3 2.4 16.7 0.8 5.9-1.7 11.4-4.5 16.7-7.5 5.4-3 10.6-6.3 15.9-9.5 9.6-5.8 19.7-11.5 26.8-20.3 0.4-0.4 0.9 0.2 0.6 0.6-8.5 10.5-21.3 16.9-32.7 23.9-5.5 3.3-11 6.7-16.8 9.5-5.4 2.7-11.2 5.1-17.3 5.4-5 0.2-10.3-1.2-13.9-4.7-3.7-3.5-5-8.7-5-13.6-0.1-11.3 5.8-21.9 12.8-30.2 8.3-9.7 18.6-17.7 28.5-25.7 0.4-0.3 1 0.3 0.6 0.6z"/>
				<path id="Layer" class="s6" d="m250 226.9c5.4 2.6 9.2 7.7 10 13.6 0.1 0.6-0.7 0.8-0.8 0.3-0.8-5.7-4.4-10.7-9.6-13.1-0.5-0.3-0.1-1 0.4-0.8z"/>
				<path id="Layer" class="s6" d="m251 227.6c1.2-0.5 2.1-1.4 3.1-2.1q1.5-1.2 3-2.3c0.4-0.3 0.8 0.4 0.4 0.7-1.1 0.9-2.2 1.7-3.4 2.6-0.9 0.7-1.8 1.4-2.9 1.9-0.5 0.2-0.7-0.6-0.2-0.8z"/>
			</g>
			<path id="Layer" class="s6" d="m257.1 223.4c0.6-1.6 1.2-3.2 2.1-4.7 0.6-1.1 1.3-2 2.6-2.3 1.3-0.3 2.9 0.2 4.2 0.6 1.8 0.5 3.5 1.1 5.2 1.6 7.3 2 14.8 2.8 22.3 2.3 0.5 0 0.5 0.8 0 0.9-6.3 0.4-12.7-0.1-19-1.5-3.2-0.7-6.2-1.9-9.4-2.7-2-0.5-3.9-0.8-5.1 1.3-0.9 1.5-1.5 3.1-2.1 4.7-0.2 0.5-1 0.3-0.8-0.2z"/>
			<path id="Layer" class="s6" d="m258.7 236.2q3.1-2.3 6.2-4.7c0.4-0.3 0.8 0.4 0.4 0.7q-3.1 2.4-6.2 4.7c-0.4 0.4-0.8-0.3-0.4-0.7z"/>
			<path id="Layer" class="s6" d="m265.5 231.3c5.3 1.1 10.7 0.6 15.9-0.9q3.9-1.2 7.6-2.9 1.8-0.8 3.5-1.8c0.5-0.3 1.1-0.6 1.5-1.1 0.9-0.9 0.7-2.3-0.5-2.7-0.5-0.2-0.3-1 0.2-0.8 2.3 0.8 2.1 3.3 0.3 4.6-2.5 1.9-5.8 3.1-8.7 4.3-6.4 2.4-13.3 3.5-20 2-0.6-0.1-0.3-0.9 0.2-0.7z"/>
			<path id="Layer" class="s2" d="m193.2 112.8c4.2-3.5 10.4-7.7 18.8-10.2 4-1.2 8.9-2.6 15.4-2 10 0.8 16.9 5.7 19.4 7.5 3.8 2.8 6.4 5.8 8 7.8q0.4 29.1 1.2 58.1 0.3 9 0.6 18c-4 2.4-9.5 5.1-16.5 6.7-16.3 3.7-29.9-1.2-35.4-3.6 0-4.9-0.3-12.3-1.8-21.1-2.4-14.4-6.2-20.3-8.6-32.7-1.2-6.5-2.3-16.1-1.1-28.5z"/>
			<path id="Layer" class="s3" d="m252 115.5c1.6 0.7 2.6 2 3.4 3 0.6 0.8 1.6 2.4 2.5 6 0.8 3.3 0.8 5.9 0.9 6.9 0.2 10.2 0.7 9.2 0.8 20.3 0 0.8 0-0.1-0.1 7.5 0 5.9 0 7-0.3 8.9-0.6 4.3-1.7 6.8-2 7.5-1 2.2-2.1 3.7-2.3 4-2.1 2.8-4.5 4.3-9.1 6.8-5.3 3-7.9 4.5-10.3 5.6-4 1.9-8.8 4.2-15.5 6.1-1.7 0.5-3.2 0.9-4.1 1.1-0.7 0.6-1.7 1.4-2.8 2.6-1.8 1.8-2.8 3.4-3.1 3.9-1.8 2.5-2.6 4.8-4.4 6.1-0.4 0.3-0.9 0.6-1.5 0.6-0.8-0.1-1.5-0.5-1.7-0.8-0.5 0.8-1.7 2.1-3.5 2.5-1.1 0.2-2-0.1-3.6-0.5-1.2-0.4-1.5-0.6-3.9-1.6-2.9-1.3-3.7-1.4-3.7-1.8 0-0.5 0.7-0.9 4.5-2.6 3.9-1.7 4.4-1.9 5.2-2.7 0.6-0.5 1.2-1.6 2.5-3.8 1.2-2 1.4-2.7 2.4-4.4 0.9-1.5 1.7-2.6 2.2-3.3-0.5-0.7-1.3-1.6-2.6-2.2-1.1-0.5-1.6-0.3-2.7-0.9-1.3-0.7-2.8-2-2.6-2.8 0.3-1 3.1-1 4-1 3 0 4.6 0.9 8.5 1.9q2.5 0.6 4.6 1c1.5-0.7 3.7-1.8 6.2-3.4 6.5-3.8 10.9-8 15-11.8 1.8-1.7 4.2-4.1 6.9-7.2 0.3-2.7 0.6-6.9 0.7-12 0.1-4 0-7.1-0.2-11-0.2-5.4-0.6-10-0.6-16.8-0.1-6.5 0.1-8.2 1.5-9.7 2-2.2 5.9-3.2 8.8-2z"/>
			<path id="Layer" class="s7" d="m256.9 121.1c0.8 1.7 1.1 3.3 1.6 7.2 0.5 5.3 0.7 9.8 0.8 13.6 0.1 2.6 0.2 5.7 0.2 9.7 0 2.4 0 5.6-0.2 9.6-0.3 5.5-0.4 8.4-1.1 10.9-0.5 1.4-1.4 4.6-3.8 7.7-1.2 1.7-3 3.5-10.7 7.8-4.8 2.7-9.3 5.2-16 7.7-4.7 1.8-8.9 3.1-11.9 3.9-4.6 3.5-6.6 6.7-7.7 9.1-0.4 1.1-1.4 3.6-3.2 3.9-0.8 0.1-1.6-0.3-2.1-0.7-0.3 0.4-1.7 2.3-4.4 2.7-2.4 0.3-4.1-0.8-4.5-1.1 2.9-1.3 6.4-3.2 10.1-6.1 4.7-3.6 7.9-7.3 10.2-10.3 3.1-0.7 7.6-1.8 12.8-3.7 7.2-2.5 10.8-3.7 14-6.5 5.1-4.2 6.8-9.6 9-17 1.7-5.2 2.3-10.8 3.5-21.9 1.5-13.2 1.3-18.3 0.6-22.9-0.6-3.9-1.4-7-2-9.2 1.4 1 3.4 2.8 4.8 5.6z"/>
			<path id="Layer" class="s4" d="m243.6 117.6c-1.5 3.8-1.6 7.9-1.5 11.9 0.1 4.1 0.3 8.3 0.5 12.4 0.4 8.4 0.6 16.8-0.4 25.1 0 0.6-0.9 0.6-0.8 0 1-8.5 0.7-17.1 0.3-25.6-0.1-4.3-0.4-8.5-0.5-12.7 0-3.8 0.1-7.7 1.6-11.3 0.2-0.5 1-0.3 0.8 0.2z"/>
			<path id="Layer" class="s6" d="m243.4 167.1c-2.8 1.5-5 3.9-7.2 6.2-2 2.3-4.2 4.4-6.5 6.4-4.8 4-10.1 7.3-15.7 9.9-0.5 0.2-0.9-0.5-0.4-0.7 5.8-2.7 11.3-6.2 16.2-10.4 2.4-2.1 4.5-4.3 6.6-6.6 2-2.1 4-4.2 6.6-5.6 0.5-0.2 0.9 0.5 0.4 0.8z"/>
			<path id="Layer" class="s6" d="m213.6 189.8q-3.5-0.8-7.1-1.5c-2.3-0.6-4.6-1.2-6.9-1.6-0.8-0.1-2-0.2-2.5 0.8-0.5 0.9 0.4 1.5 1 1.9 1 0.5 2.1 0.7 3.1 1.1 1.5 0.5 2.7 1.4 3.7 2.6 0.3 0.4-0.4 0.8-0.8 0.4-1-1.4-2.4-2-4.1-2.6-1-0.3-2.1-0.6-3-1.3-1.2-0.9-1.2-2.5 0.1-3.4 0.9-0.5 1.9-0.4 2.9-0.3 1.5 0.3 3.1 0.7 4.6 1.1q4.6 1 9.2 1.9c0.5 0.2 0.3 1-0.2 0.9z"/>
			<path id="Layer" class="s6" d="m204.2 194.1q-1.5 2.8-3 5.5c-0.9 1.6-1.7 3.4-2.8 4.8-1 1.3-2.3 1.8-3.7 2.5-1.8 0.8-3.6 1.6-5.3 2.4q-0.3 0.2-0.6 0.3-0.9 0.2-0.1 1c0.4 0.8 0.6 0.7 1.5 0.7 0.9-0.1 1.9-0.3 2.7-0.5 1.6-0.3 3.2-0.9 4.6-1.7 3-1.6 5.6-3.9 7.4-6.8 0.3-0.4 1.1 0 0.8 0.4-2.1 3.2-5.1 5.8-8.5 7.5-1.7 0.8-3.4 1.4-5.3 1.7-1.3 0.2-3.3 0.7-4.2-0.5-0.9-1-0.2-2 0.7-2.5 2.1-1.2 4.5-2.1 6.6-3.1 1.2-0.5 2.2-1.1 2.9-2.2 0.8-1 1.3-2.2 1.9-3.2 1.2-2.3 2.5-4.5 3.7-6.7 0.2-0.5 0.9-0.1 0.7 0.4z"/>
			<path id="Layer" class="s6" d="m215.9 198.9q10.8-3 20.8-7.9 4.9-2.5 9.6-5.3c3-1.9 6.4-3.8 8.5-6.7 0.3-0.5 1.1-0.1 0.8 0.4-2.1 2.8-5.2 4.6-8.1 6.5q-4.9 3-10 5.6c-6.8 3.4-14 6.1-21.4 8.2-0.5 0.2-0.7-0.6-0.2-0.8z"/>
			<path id="Layer" class="s6" d="m242.6 117.8c2.1-4.3 7.8-4.4 11.2-1.6 3.9 3.1 4.8 8.4 5.2 13.2 0.6 6.3 0.9 12.7 1 19.1 0 6.1 0 12.3-0.6 18.4-0.4 4.7-1.5 9.5-4.6 13.2-0.4 0.4-0.9-0.2-0.6-0.6 3.5-4.1 4.3-9.6 4.6-14.9 0.7-10.7 0.5-21.5-0.3-32.3-0.4-4.9-0.6-10.5-4.1-14.4-2.9-3.2-8.8-4.2-11.1 0.3-0.2 0.4-0.9 0-0.7-0.4z"/>
			<path id="Layer" class="s6" d="m191.6 211.6c2.2 1 5.4 2.9 7.8 1.9 2-0.9 3.7-3 5.3-4.5q5.4-5 10.9-10.1c0.4-0.3 0.9 0.2 0.6 0.6q-6.5 5.9-12.9 11.9c-1.5 1.4-3.1 3.2-5.4 3.2-2.3 0-4.7-1.4-6.7-2.3-0.5-0.2-0.1-0.9 0.4-0.7z"/>
			<path id="Layer" class="s6" d="m203.2 211.3c1.3 2.5 4-2.3 4.6-3.1q1.6-2.4 3.2-4.8c0.3-0.5 1-0.1 0.7 0.4-1.7 2.5-3.3 5.4-5.3 7.8-1 1.2-3 1.9-3.9 0.2-0.3-0.5 0.4-0.9 0.7-0.5z"/>
			<path id="Layer" class="s6" d="m196.4 209.7c0.5 0.2 1.1 0.5 1.6 0.5 0.7-0.1 0.9-0.7 1.2-1.2 0.3-0.8 0.9-1.3 1.6-1.7 0.4-0.3 0.8 0.4 0.4 0.7-0.7 0.4-1.1 1-1.5 1.8-0.2 0.4-0.4 0.8-0.9 1-0.9 0.5-1.9 0-2.8-0.4-0.4-0.2 0-0.9 0.4-0.7z"/>
			<path id="Layer" class="s3" d="m216.6 43.3c7.5 3.3 10.1 11.1 10.5 12.3 1.8 5.7 0.6 10.6 0 12.5 0.8-0.5 2.1-1.2 3.8-1.6 1.5-0.3 3.5-0.7 5 0.4 1.7 1.3 1.7 3.6 1.8 4.5 0.1 4-3 6.6-3.6 7.2-0.8 0.7-2.3 1.9-4.6 2-1.2 0.1-2.1-0.2-2.7-0.3-0.7 4.8-0.9 10.8 0.1 17.5 0.3 1.8 0.7 3.6 1.1 5.2-0.8 1.6-3 5.5-7.6 7.6-1.4 0.7-2.8 1-3.9 1.2-1-2.4-2.1-5.2-2.9-8.4q-0.7-2.4-1-4.5c-1.9 1.1-4.6 2.4-8.1 3-1.9 0.4-3.7 0.5-5.1 0.4-2.3-1.1-5.1-3.1-7.6-6.2-2.9-3.6-3.9-7.1-4.6-9.5-1.1-3.6-1.3-6.5-1.4-8.3-0.3-3.8 0-6.7 0.3-9.4 0.6-4.8 1.6-8.4 2-10 0.3-1 1.3-4.3 2.3-6.3 3.5-7.1 15.9-13.9 26.2-9.3z"/>
			<path id="Layer" class="s5" d="m237.2 53.3c2 1.4 3 2.9 3.2 3.2 4.5 7.2-0.2 20.4-8.6 23.7-1.9 0.7-3.7 0.9-4.9 0.8-0.4 4.9-0.4 10.4 0.3 16.3 0.2 2 0.4 3.9 0.7 5.7q-2.1 2.8-4.3 5.7-1-2.2-1.8-4.8c-1.3-4.1-1.8-7.8-2-10.9-2.1 2.3-5.9 5.8-11.7 7.9-2.1 0.7-4.1 1.1-5.8 1.3 5.7-5 9.3-10.2 11.4-13.7 1.4-2.3 6.7-11.6 7.9-25 0.4-4.4 0.3-8.2 0-10.7 1.2-0.5 9.2-3.7 15.6 0.5z"/>
			<path id="Layer" class="s2" d="m188.3 58.1c-0.5-1.9-1.3-5.5-0.5-10 0.3-1.4 1.1-5.8 4.2-9.3 4.4-5.2 10-4.2 17.3-6.8 4.6-1.6 10.9-5 17.3-13.1q-0.9 4.5-1.8 9c1 0.2 4.4 1 7.8-0.7 5.7-2.8 6.2-9.5 6.2-9.8 0.7 1.5 2 4.9 1.4 9.3-0.4 3-1.5 5.2-2.2 6.6 0.3 0.3 2.1 2.1 4.1 1.9 2.5-0.4 4.8-3.8 4.2-8.2 0.5 1.7 1.2 4.4 1 7.6-0.2 4-1.5 7.1-2.4 8.7 0.2 0.2 1.6 1.4 3.6 1.2 1.7-0.2 3.2-1.5 3.8-3.3-0.1 1.9-0.5 4.5-1.5 7.6-1.5 4.1-2.7 4.5-3.3 7.4-1 4.7 1.5 6.2 0.8 10.4-0.5 3.5-2.8 5.6-5.7 8.4-5.2 5.1-11.2 7.8-16.2 9.3q0.3-2.3 0.7-4.6c0.6 0.4 1.7 0.9 3.1 0.9 2.8-0.2 4.6-2.7 5.5-4 1.1-1.5 2.9-4.1 1.9-6.9-0.8-2.3-2.9-3.2-3.1-3.3-2.5-1.1-5.7-0.1-7.8 2.4-1.1-4.5-2.3-9.1-3.4-13.6-4-2.5-7.9-5-11.8-7.4-1.9-0.4-7.2-1.1-13.1 1.5-6 2.7-9.1 7.2-10.1 8.8z"/>
			<path id="Layer" class="s4" d="m188.7 58.2c-2.2 8.4-3.7 17.2-1.8 25.8 1.6 7.2 5.9 15.9 13.5 18.3 0.5 0.1 0.3 0.9-0.2 0.8-7.6-2.4-12.1-10.7-13.9-18-2.1-9-0.7-18.3 1.6-27.1 0.2-0.5 1-0.3 0.8 0.2z"/>
			<path id="Layer" class="s4" d="m200.8 102.1c12.4-1.3 22.7-10.3 25.6-22.4 0.2-0.5 0.9-0.3 0.8 0.3-3 12.4-13.6 21.6-26.4 22.9-0.5 0.1-0.5-0.7 0-0.8z"/>
			<path id="Layer" class="s4" d="m226.9 79.4c4.9 3 9.6-3.1 10.3-7.4 0.2-1.2 0.3-2.7-0.4-3.8-0.7-1-1.9-1.6-3-1.8-2.1-0.5-4.3 0.2-5.8 1.8-0.4 0.4-0.9-0.2-0.6-0.6 1.8-1.9 4.5-2.6 7-1.9 2.7 0.8 3.9 2.8 3.7 5.6-0.3 5.1-5.9 12.4-11.6 8.9-0.5-0.3 0-1 0.4-0.8z"/>
			<path id="Layer" class="s4" d="m227.2 80.3c-1 7.5-0.6 15.1 1.2 22.5 0.1 0.5-0.7 0.8-0.8 0.2-1.8-7.5-2.2-15.2-1.2-22.9 0.1-0.5 0.9-0.3 0.8 0.2z"/>
			<path id="Layer" class="s4" d="m212.9 98.8q1.3 6.6 4 12.8c0.2 0.5-0.5 0.9-0.7 0.4q-2.8-6.3-4.1-13c0-0.5 0.7-0.7 0.8-0.2z"/>
			<path id="Layer" class="s6" d="m216.5 111.3c5-0.8 9.4-4.1 11.3-8.9 0.2-0.5 1-0.3 0.8 0.2-2 5-6.5 8.7-11.9 9.6-0.5 0-0.7-0.8-0.2-0.9z"/>
			<path id="Layer" class="s6" d="m212.8 99.2c1.2 0 2.5-1.4 3.4-2.2 0.8-0.6 1.6-1.3 2.3-2.1 1.6-1.7 2.9-3.6 3.8-5.7 0.2-0.5 1-0.3 0.8 0.2-1 2.4-2.5 4.6-4.3 6.4q-1.5 1.5-3.2 2.8c-0.9 0.7-1.7 1.5-2.8 1.4-0.5 0-0.5-0.9 0-0.8z"/>
			<path id="Layer" class="s6" d="m212.4 98.9q3.5-2.3 6.5-5.1c0.3-0.4 0.9 0.2 0.5 0.6q-3 2.9-6.5 5.2c-0.5 0.2-0.9-0.5-0.5-0.7z"/>
			<path id="Layer" class="s6" d="m197.4 59.8c-1.5 7-2.4 14.1-2.6 21.2-0.3-0.1-0.5-0.1-0.8-0.2q1.6-2.6 3.3-5.2c0.2-0.4 0.9 0 0.7 0.5q-1.6 2.5-3.3 5.1c-0.2 0.4-0.7 0.2-0.7-0.2q0.3-10.8 2.6-21.4c0.1-0.5 0.9-0.3 0.8 0.2z"/>
			<path id="Layer" class="s6" d="m197 91.8c-1.1-2.1-1.9-5-1.1-7.3 0.5-1.3 2.2-2.5 3.4-1.3 0.8 0.9 0.8 2.4 0.9 3.5 0.1 1.3 0.1 2.8-0.2 4.1-0.3 1.9-1.9 1.9-3.1 0.7-0.3-0.4 0.3-1 0.6-0.6q0.6 0.8 1.7 0 0.1-0.5 0.1-1.2c0.1-0.6 0.1-1.2 0.1-1.7 0-1.3 0.1-3.2-0.9-4-1.9-1.6-2.1 2.4-2 3.4 0.1 1.4 0.5 2.7 1.2 4 0.2 0.5-0.5 0.9-0.7 0.4z"/>
			<path id="Layer" class="s4" d="m204.2 66.3c0.7 3 4.6 3.5 5.9 0.6 0.2-0.5 1-0.3 0.8 0.2-1.5 3.6-6.6 3.3-7.5-0.6-0.1-0.5 0.7-0.7 0.8-0.2z"/>
			<path id="Layer" class="s6" d="m201.1 56.5c1.1-2.5 4-3.8 6.7-3.4 3 0.5 5.3 2.7 6.8 5.2 0.3 0.5-0.5 0.9-0.7 0.4-1.3-2.2-3.3-4.2-5.9-4.7-2.4-0.5-5.2 0.6-6.2 2.9-0.2 0.5-1 0.1-0.7-0.4z"/>
			<path id="Layer" class="s6" d="m184.9 57.4c0.9-1.8 2.4-3.6 4.6-3.6 2.2 0.1 3.8 1.8 4.8 3.5 0.3 0.4-0.4 0.8-0.7 0.4-0.9-1.4-2.2-3-4.1-3-1.9-0.1-3.2 1.6-3.9 3.2-0.2 0.4-1 0-0.7-0.5z"/>
			<ellipse id="Layer" class="s4" cx="190.5" cy="66.3" rx=".9" ry="4.1"/>
			<path id="Layer" class="s3" d="m193 114.1c-0.1 1-0.2 2.4-0.2 4-0.3 5.6-0.1 9.8 0 11 0.2 3.6 0.7 8.4 1.9 14-1.1 1.3-2.8 3.2-4.9 5.4-4 4.2-6.1 6.3-9.4 8.6-3.7 2.5-6.3 3.2-7.7 3.6-1.7 0.4-3.4 0.8-5.4 0.4-3.3-0.8-5.3-3.2-6-4.2-1.8-2.3-2.2-4.5-3-9-0.5-3.2-0.6-5.6-0.8-10.4-0.1-2.3-0.2-5-0.2-8.7 0.1-4.2 0.3-9.1 0.9-14.7 0.3-2.4 0.7-5.5 1.3-9q-0.7-1-1.5-2-0.8-1.1-1.6-2.1c-1.4 1.2-2.8 2.4-4.2 3.6-0.4 0.1-1 0.3-1.8 0.3-1.5-0.2-2.3-1.2-2.6-1.5-1.4-1.6-1.2-3.5-1.1-3.9q2.8-3.1 5.7-6.2c0.1-1.2 0.2-2.7 0.7-4.5 0.3-1.2 0.8-2.3 1.2-3.2 0.4-0.7 0.9-1.5 1.5-2.3 1.1-1.5 2.4-2.5 3.3-3.2-0.8 0.3-0.9 0.3-1 0.3-0.1-0.3 1.2-1.9 3-2 1-0.2 1.8 0.2 2.4 0.5 0.8 0.4 1.4 0.9 1.8 1.3q2.5-2.2 5.1-4.4 0.9 0.6 1.8 1.2 2.2 1.5 3.9 2.9-0.7 0.8-1.6 1.7c-1.2 0.9-2.3 1.5-3.1 1.9 0.5 0.2 1.4 0.6 1.9 1.5 0.5 0.9 0.3 1.8 0 3-0.2 0.9-0.4 1.5-0.6 2 0.1 1.1 0.1 2.7-0.2 4.5-0.5 2.9-1.7 5-2.6 6.3 0 1.1 0 2.7 0 4.8 0.3 8.5 1.5 13.5 2.3 19.8 0.5 3.6 1 9 0.8 15.7 0.6-0.5 1.6-1.1 2.6-2 2.6-2.2 4.2-4.3 6.4-7.5 2.2-3.2 3.6-5.5 5.5-8.6 1.2-2 3.1-5 5.5-8.9z"/>
			<path id="Layer" class="s5" d="m167.9 88.8q-0.9 1.9-1.8 3.9-2.5 6-4.2 11.5c-0.2 5.7-0.4 10.5-0.5 14-0.1 5.3 0.2 11.6 0.8 24.2 0.3 5.2 0.5 8.3 2.9 10.6 2.6 2.4 6.1 2.4 8.1 2.4 10.6 0 18.6-9 20.8-11.7-3 5.1-6.4 8.4-8.7 10.3-2.6 2.2-5.9 4.9-11.1 6.3-4.4 1.1-6.4 0.9-6.9 0.8-3.8-1-5.9-4.1-6.7-5.2-1.8-2.7-2.4-5.4-2.7-11.4-0.3-6.2 0-7.8 0.1-16.3 0.1-8.1-0.2-10.4 0.4-16 0.4-3.3 0.8-6 1.2-7.8q-1.6-1.7-3.2-3.4-1.4 1.2-2.8 2.4-1 0.8-1.9 1.5c-0.5 0.1-1.4 0.1-2.2-0.3-2.2-0.9-3.6-3.7-2.9-4.6 0.4-0.6 1.6-0.1 3.2-0.1 2.8 0 4.6-1.4 8.3-4.1 2.6-1.9 5.6-4 9.8-7z"/>
			<path id="Layer" class="s4" d="m193.4 114.3c-6.5 8.8-11.2 19-19.4 26.5-0.4 0.4-0.9-0.2-0.5-0.5 8-7.5 12.8-17.7 19.2-26.5 0.3-0.4 1 0 0.7 0.5z"/>
			<path id="Layer" class="s4" d="m168.9 160.9c10.6-0.7 18.4-9.8 24.8-17.5 0.3-0.4 0.9 0.2 0.6 0.6-6.6 7.8-14.5 17-25.4 17.7-0.6 0-0.6-0.8 0-0.8z"/>
			<path id="Layer" class="s4" d="m164.5 83.9c0 1.8 1.2 3.4 3 3.9 0.5 0.1 0.3 0.9-0.2 0.8-2.1-0.6-3.6-2.5-3.6-4.7-0.1-0.5 0.8-0.5 0.8 0z"/>
			<path id="Layer" class="s4" d="m163.7 83.7c0.1-0.7 0-1 0.5-1.4 0.4-0.4 1.2-0.5 1.8-0.6 1.4-0.1 2.8 0.3 4.1 0.9 1.2 0.6 2.7 1.2 3.3 2.6 0.6 1.4 0.1 3-0.2 4.3-0.2 0.6-1 0.3-0.9-0.2 0.3-1 0.7-2.1 0.5-3.2-0.3-1.3-1.4-1.9-2.6-2.5-1.1-0.6-5.4-2.3-5.7 0.1 0 0.5-0.9 0.5-0.8 0z"/>
			<path id="Layer" class="s4" d="m172.9 89.1c-0.1 2.2 0.4 4.4-0.1 6.5-0.5 2-1.5 3.8-2.5 5.7-0.2 0.4-0.9 0-0.7-0.4 0.9-1.8 1.9-3.6 2.4-5.5 0.5-2.1 0-4.2 0.1-6.3 0-0.5 0.8-0.5 0.8 0z"/>
			<path id="Layer" class="s4" d="m170.4 100.9c-0.6 14.5 3.6 28.8 2.9 43.3 0 0.6-0.8 0.6-0.8 0 0.7-14.5-3.5-28.8-2.9-43.3 0-0.5 0.9-0.5 0.8 0z"/>
			<path id="Layer" class="s4" d="m156.7 100.8q1.2 1.6 2.6 3.1c0.4 0.4-0.2 1-0.6 0.6q-1.4-1.6-2.7-3.3c-0.3-0.5 0.4-0.9 0.7-0.4z"/>
			<path id="Layer" class="s4" d="m160 104.5c-1.8 10.5-2.6 21.3-2.2 32 0.2 5.1 0.4 10.4 1.7 15.4 1.2 4.4 4.5 9 9.6 8.9 0.5-0.1 0.5 0.8 0 0.8-3.7 0.1-6.9-2.3-8.7-5.3-2-3.4-2.5-7.4-2.8-11.3-0.5-4.5-0.7-9-0.7-13.5 0-9.2 0.7-18.3 2.3-27.2 0.1-0.6 0.9-0.4 0.8 0.2z"/>
			<path id="Layer" class="s4" d="m154.6 92.4q-3.9 3.3-7.5 6.9c-0.4 0.4-1-0.2-0.6-0.6q3.6-3.6 7.5-6.8c0.4-0.4 1 0.2 0.6 0.5z"/>
			<path id="Layer" class="s4" d="m147.1 99.5c-0.4 2.7 1.6 5.1 4.4 5 0.5 0 0.5 0.9 0 0.9-3.3 0-5.7-2.7-5.3-5.9 0.1-0.5 0.9-0.5 0.9 0z"/>
			<path id="Layer" class="s4" d="m147 98.5c3.5 0.1 5.9 3.1 5.1 6.5-0.1 0.5-0.9 0.3-0.8-0.2 0.6-2.8-1.4-5.4-4.3-5.5-0.5 0-0.5-0.8 0-0.8z"/>
			<path id="Layer" class="s4" d="m151.9 104.3c2.8-2.7 5.7-5.2 8.5-7.9q2-1.8 3.8-3.8c0.6-0.6 1.2-1.3 1.8-2 0.3-0.4 0.6-0.8 1-1.2q0.2-0.3 0.4-0.6 0.2-0.4 0.2 0 0.3 0 0.5-0.1 0 0.1 0 0.1c-0.4 0.4-1-0.1-0.6-0.6q0 0 0.1-0.1c0.1-0.1 0.3-0.1 0.5 0q0 0 0.1 0c0.1 0.1 0.2 0.2 0.2 0.4 0 1.1-1.8 2.7-2.5 3.5-1.2 1.5-2.6 2.8-4 4.2-3.1 2.9-6.3 5.8-9.4 8.7-0.4 0.3-1-0.3-0.6-0.6z"/>
			<path id="Layer" class="s4" d="m152 93.2c0.3-2.1 0.3-4.3 1-6.3 0.4-1.1 1.3-2.2 2.6-2.3 1.4-0.1 2.3 0.8 3.1 1.9 0.7 1 1.4 2 2.1 3 0.3 0.6 0.8 1 0.6 1.7 0 0.2-0.2 0.3-0.4 0.3q-0.1 0-0.1 0c-0.6 0-0.6-0.9 0-0.8q0 0 0.1 0-0.2 0.1-0.4 0.3c0.2-0.4-0.9-1.6-1.1-2-0.5-0.5-0.8-1.2-1.3-1.8-0.9-1.3-2.7-2.8-4-0.8-0.6 0.9-0.7 2-0.8 3q-0.3 2-0.6 4c-0.1 0.5-0.9 0.3-0.8-0.2z"/>
			<path id="Layer" class="s4" d="m154.8 89.9c0.6 1 1.3 2.1 2.5 2.5 1.2 0.4 2.7-0.1 3-1.4 0.1-0.6 1-0.3 0.8 0.2-0.4 1.4-1.8 2.3-3.2 2.1-1.8-0.1-3-1.6-3.8-3-0.2-0.5 0.5-0.9 0.7-0.4z"/>
			<path id="Layer" class="s4" d="m154.3 84.9c0.1-1.3 1.1-2.1 2.3-2.3 1.7-0.3 3 0.9 4.1 2 0.8 0.8 1.6 1.6 2.4 2.4 0.3 0.4 0.7 0.7 0.6 1.3-0.2 1.5-2 2.5-3.2 2.9-0.5 0.1-0.7-0.7-0.2-0.8 1-0.3 2.5-1.1 2.3-2.3-0.2-0.9-1.4-1.8-2-2.4-0.8-0.8-1.6-1.8-2.7-2.2-1.1-0.3-2.6 0-2.8 1.4 0 0.5-0.8 0.5-0.8 0z"/>
			<path id="Layer" class="s4" d="m156 82.3c0.7-0.7 0.9-2 2-2.3 1.3-0.4 2.7 0.9 3.6 1.6 1.9 1.4 3.6 4.1 1.9 6.4-0.3 0.5-1 0.1-0.7-0.4 1.6-2.1-0.3-4.4-2-5.6-1-0.7-2.3-1.7-3.2-0.6-0.4 0.4-0.6 1-1 1.5-0.3 0.3-0.9-0.2-0.6-0.6z"/>
			<path id="Layer" class="s4" d="m158.8 79.8c1-1.2 2.4-2.5 4-1.9 1.6 0.7 2.7 2.5 3.2 4.2 0.1 0.5-0.7 0.7-0.8 0.2-0.4-1.2-1-2.3-2-3.1-1.5-1.3-2.8 0-3.8 1.1-0.3 0.5-0.9-0.2-0.6-0.5z"/>
			<path id="Layer" class="s4" d="m165 79.9q2.5-2.2 5.1-4.4c0.4-0.4 1 0.2 0.6 0.6q-2.6 2.1-5.2 4.3c-0.3 0.4-1-0.2-0.5-0.5z"/>
			<path id="Layer" class="s4" d="m171.2 83.3q2.4-1.7 4.6-3.7c0.3-0.4 0.9 0.2 0.5 0.5q-2.2 2.1-4.6 3.9c-0.5 0.3-0.9-0.4-0.5-0.7z"/>
			<ellipse id="Layer" class="s8" cx="184.1" cy="65.2" rx="16.7" ry="16.7"/>
			<path id="Layer" class="s4" d="m173.5 66.6q9.3-6 18.9-11.1c0.5-0.3 0.9 0.4 0.4 0.7q-9.6 5.2-18.8 11.1c-0.5 0.3-0.9-0.4-0.5-0.7z"/>
			<path id="Layer" class="s4" d="m174.2 73.8q7.6-5.5 15.4-10.7c0.5-0.4 0.9 0.4 0.5 0.7-5.3 3.5-10.4 7-15.5 10.7-0.4 0.3-0.8-0.4-0.4-0.7z"/>
		</g>
	</g>
</svg>