<svg version="1.2" xmlns="http://www.w3.org/2000/svg" viewBox="0 0 16 16" width="16" height="16">
	<title>warning-svg</title>
	<style>
		.s0 { fill: #ff001e } 
	</style>
	<path id="Layer" fill-rule="evenodd" class="s0" d="m16 8c0 2.1-0.8 4.2-2.3 5.7-1.5 1.5-3.6 2.3-5.7 2.3-2.1 0-4.2-0.8-5.7-2.3-1.5-1.5-2.3-3.6-2.3-5.7 0-2.1 0.8-4.2 2.3-5.7 1.5-1.5 3.6-2.3 5.7-2.3 2.1 0 4.2 0.8 5.7 2.3 1.5 1.5 2.3 3.6 2.3 5.7zm-8-4q-0.2 0-0.4 0.1-0.1 0.1-0.3 0.2-0.1 0.1-0.2 0.3 0 0.2 0 0.4l0.4 3.5q0 0.2 0.1 0.4 0.2 0.1 0.4 0.1 0.2 0 0.4-0.1 0.1-0.2 0.2-0.4l0.3-3.5q0-0.2 0-0.4-0.1-0.2-0.2-0.3-0.2-0.1-0.3-0.2-0.2-0.1-0.4-0.1zm0 6q-0.4 0-0.7 0.3-0.3 0.3-0.3 0.7 0 0.4 0.3 0.7 0.3 0.3 0.7 0.3 0.4 0 0.7-0.3 0.3-0.3 0.3-0.7 0-0.4-0.3-0.7-0.3-0.3-0.7-0.3z"/>
</svg>